<svg xmlns="http://www.w3.org/2000/svg" width="13" height="14" viewBox="0 0 13 14" fill="none">
  <g clip-path="url(#clip0_2036_116)">
    <path d="M6.20454 1.5302C6.31385 1.26739 6.68616 1.26739 6.79547 1.5302L8.11777 4.70939C8.16385 4.82018 8.26805 4.89589 8.38766 4.90548L11.8199 5.18063C12.1036 5.20338 12.2186 5.55746 12.0025 5.74264L9.38749 7.98264C9.29636 8.0607 9.25656 8.18319 9.2844 8.29991L10.0833 11.6492C10.1494 11.926 9.84816 12.1449 9.60525 11.9965L6.66681 10.2017C6.5644 10.1392 6.43561 10.1392 6.33321 10.2017L3.39476 11.9965C3.15185 12.1449 2.85065 11.926 2.9167 11.6492L3.71561 8.29991C3.74346 8.18319 3.70366 8.0607 3.61252 7.98264L0.99755 5.74264C0.781379 5.55746 0.896427 5.20338 1.18016 5.18063L4.61236 4.90548C4.73197 4.89589 4.83616 4.82018 4.88225 4.70939L6.20454 1.5302Z" fill="#FDB022"/>
  </g>
  <defs>
    <clipPath id="clip0_2036_116">
      <rect width="12.8" height="12.8" fill="white" transform="translate(0.0999985 0.5)"/>
    </clipPath>
  </defs>
</svg>